<svg xmlns="http://www.w3.org/2000/svg" width="20" height="20" viewBox="0 0 20 20">
  <path id="Icon_material-face" data-name="Icon material-face" d="M10,12.75A1.25,1.25,0,1,0,11.25,14,1.25,1.25,0,0,0,10,12.75Zm6,0A1.25,1.25,0,1,0,17.25,14,1.25,1.25,0,0,0,16,12.75ZM13,3A10,10,0,1,0,23,13,10,10,0,0,0,13,3Zm0,18a8.011,8.011,0,0,1-8-8,8.108,8.108,0,0,1,.05-.86,10.062,10.062,0,0,0,5.21-5.37A9.974,9.974,0,0,0,18.42,11a9.76,9.76,0,0,0,2.25-.26A7.988,7.988,0,0,1,13,21Z" transform="translate(-3 -3)"/>
</svg>
